<svg width="18" height="17" viewBox="0 0 18 17" fill="none" xmlns="http://www.w3.org/2000/svg">
<path d="M5.66636 6.70228H8.9997M5.66636 9.61895H11.4997M9.41636 15.4523C13.3284 15.4523 16.4997 12.281 16.4997 8.36895C16.4997 4.45693 13.3284 1.28561 9.41636 1.28561C5.50435 1.28561 2.33303 4.45693 2.33303 8.36895C2.33303 9.16061 2.4629 9.92194 2.70251 10.6328C2.79267 10.9003 2.83776 11.034 2.84589 11.1368C2.85392 11.2383 2.84785 11.3094 2.82274 11.4081C2.79732 11.508 2.74119 11.6119 2.62894 11.8196L1.26589 14.3426C1.07147 14.7024 0.974255 14.8824 0.996012 15.0213C1.01496 15.1422 1.08615 15.2487 1.19068 15.3125C1.31068 15.3857 1.51411 15.3646 1.92098 15.3226L6.1885 14.8815C6.31773 14.8681 6.38235 14.8614 6.44125 14.8637C6.49918 14.8659 6.54007 14.8713 6.59656 14.8844C6.65399 14.8976 6.72621 14.9254 6.87066 14.9811C7.6607 15.2854 8.51905 15.4523 9.41636 15.4523Z" stroke="white" stroke-opacity="0.8" stroke-width="1.66667" stroke-linecap="round" stroke-linejoin="round"/>
</svg>
